<svg
	width="16"
	height="16"
	viewBox="0 0 16 16"
	fill="none"
	xmlns="http://www.w3.org/2000/svg"
>
	<path
		d="M6.98603 4.71207C7.32863 3.76264 8.67136 3.76264 9.01397 4.71207L9.44509 5.90683C9.55395 6.20851 9.79149 6.44605 10.0932 6.55491L11.2879 6.98603C12.2374 7.32864 12.2374 8.67137 11.2879 9.01396L10.0932 9.44509C9.79149 9.55396 9.55395 9.79149 9.4451 10.0932L9.01397 11.2879C8.67136 12.2374 7.32863 12.2374 6.98603 11.2879L6.5549 10.0932C6.44605 9.7915 6.20851 9.55396 5.90683 9.44509L4.71207 9.01396C3.76264 8.67137 3.76264 7.32864 4.71207 6.98604L5.90683 6.55491C6.20851 6.44605 6.44605 6.20851 6.5549 5.90683L6.98603 4.71207Z"
		fill="black"
	/>
</svg>
