<svg
	width="48"
	height="48"
	viewBox="0 0 48 48"
	fill="none"
	xmlns="http://www.w3.org/2000/svg"
>
	<path
		d="M19.1445 5.20801C21.1169 1.07393 27.1034 1.1407 28.9463 5.4082L29.0146 5.54688C29.3925 6.21099 30.2524 6.45127 30.9268 6.05176L31.1172 5.94336C35.0791 3.79235 39.7951 7.21863 38.9736 11.6514L38.9287 11.8662C38.7457 12.6819 39.321 13.4727 40.1533 13.5508C44.855 13.9916 46.7546 19.8388 43.21 22.959C42.5826 23.5114 42.5826 24.4886 43.21 25.041C46.6994 28.1126 44.9128 33.8259 40.3711 34.4238L40.1533 34.4492C39.321 34.5273 38.7457 35.3181 38.9287 36.1338L38.9736 36.3486C39.7951 40.7814 35.0791 44.2076 31.1172 42.0566L30.9268 41.9482C30.2524 41.5487 29.3925 41.789 29.0146 42.4531L28.9463 42.5918C27.1034 46.8593 21.1169 46.9261 19.1445 42.792L19.0537 42.5918C18.743 41.8723 17.907 41.5619 17.2109 41.877L17.0732 41.9482C13.0104 44.3549 8.03761 40.7415 9.07129 36.1338C9.25426 35.3181 8.67904 34.5273 7.84668 34.4492C3.14501 34.0084 1.24537 28.1612 4.79004 25.041L4.90039 24.9326C5.38062 24.4057 5.38062 23.5943 4.90039 23.0674L4.79004 22.959C1.24537 19.8388 3.14501 13.9916 7.84668 13.5508L8 13.5283C8.69835 13.3843 9.17572 12.7273 9.09668 12.0186L9.07129 11.8662C8.03761 7.25851 13.0104 3.64511 17.0732 6.05176C17.7925 6.47789 18.7223 6.17573 19.0537 5.4082L19.1445 5.20801Z"
		stroke-width="4"
	/>
</svg>
