<svg
	width="47"
	height="48"
	viewBox="0 0 47 48"
	fill="none"
	xmlns="http://www.w3.org/2000/svg"
>
	<path
		d="M6.0293 30.2764C1.27814 27.3657 1.35456 20.3669 6.25879 17.5879L6.48144 17.4502C7.5614 16.7225 8.13271 15.4285 7.92578 14.127C7.02681 8.47188 12.6379 3.99716 17.9512 6.13184C19.2556 6.65596 20.7484 6.31456 21.6963 5.27637C25.5571 1.04765 32.5554 2.64494 34.1992 8.12988C34.5775 9.39223 35.6528 10.3109 36.9414 10.498L37.2021 10.5254C42.9155 10.9073 46.03 17.374 42.7666 22.0791C42.0153 23.1621 41.9684 24.5759 42.626 25.7002L42.7666 25.9209C46.03 30.6259 42.9155 37.0927 37.2021 37.4746C35.8872 37.5625 34.7533 38.4073 34.2842 39.6221L34.1992 39.8701C32.5554 45.3551 25.5571 46.9524 21.6963 42.7236C20.7484 41.6854 19.2556 41.344 17.9512 41.8682C12.6379 44.0028 7.02681 39.5281 7.92578 33.873L7.95605 33.6133C8.06065 32.3151 7.4055 31.0619 6.25879 30.4121L6.0293 30.2764Z"
		stroke-width="4"
	></path>
</svg>
