<svg
	width="44"
	height="44"
	viewBox="0 0 44 44"
	fill="none"
	xmlns="http://www.w3.org/2000/svg"
>
	<path
		d="M13.4619 6.92969C17.7512 1.07454 26.5969 1.1688 30.7393 7.2129L30.9043 7.44337C31.7548 8.57672 32.9495 9.40844 34.3135 9.81055C41.4533 11.9153 44.2538 20.5331 39.7148 26.4326C38.79 27.6346 38.307 29.1188 38.3486 30.6348C38.5533 38.0757 31.2224 43.4022 24.209 40.9082C22.7801 40.4002 21.2199 40.4002 19.791 40.9082C12.7775 43.4022 5.44671 38.0757 5.65136 30.6348C5.69035 29.2135 5.26892 27.8201 4.4541 26.6611L4.28515 26.4326C-0.253836 20.5331 2.54665 11.9153 9.68652 9.81055L9.95703 9.72461C11.2976 9.26587 12.4569 8.38578 13.2607 7.21289L13.4619 6.92969Z"
		stroke-width="4"
	></path>
</svg>
